<svg width="358" height="51" viewBox="0 0 358 51" fill="none" xmlns="http://www.w3.org/2000/svg">
<rect y="0.337158" width="358" height="50.152" rx="2" fill="black"/>
<path d="M163.108 23C162.622 20.3153 160.474 18.7301 157.841 18.7301C154.491 18.7301 152.062 21.3125 152.062 25.4545C152.062 29.5966 154.491 32.179 157.841 32.179C160.474 32.179 162.622 30.5938 163.108 27.9091H161.522C161.139 29.7244 159.579 30.696 157.841 30.696C155.463 30.696 153.596 28.8551 153.596 25.4545C153.596 22.054 155.463 20.2131 157.841 20.2131C159.579 20.2131 161.139 21.1847 161.522 23H163.108ZM165.465 32H166.973V25.7869C166.973 24.4574 168.021 23.4858 169.453 23.4858C169.856 23.4858 170.271 23.5625 170.374 23.5881V22.054C170.201 22.0412 169.805 22.0284 169.581 22.0284C168.405 22.0284 167.382 22.6932 167.024 23.6648H166.922V22.1818H165.465V32ZM175.98 32.2045C177.974 32.2045 179.431 31.2074 179.892 29.7244L178.434 29.3153C178.051 30.3381 177.162 30.8494 175.98 30.8494C174.209 30.8494 172.988 29.7053 172.918 27.6023H180.045V26.9631C180.045 23.3068 177.872 22.054 175.826 22.054C173.167 22.054 171.403 24.1506 171.403 27.1676C171.403 30.1847 173.142 32.2045 175.98 32.2045ZM172.918 26.2983C173.02 24.7706 174.1 23.4091 175.826 23.4091C177.463 23.4091 178.511 24.6364 178.511 26.2983H172.918ZM185.229 32.2301C186.942 32.2301 187.837 31.3097 188.144 30.6705H188.22V32H189.729V25.5312C189.729 22.4119 187.351 22.054 186.098 22.054C184.615 22.054 182.928 22.5653 182.161 24.3551L183.593 24.8665C183.925 24.1506 184.711 23.3835 186.149 23.3835C187.536 23.3835 188.22 24.1186 188.22 25.3778V25.429C188.22 26.1577 187.479 26.0938 185.689 26.3239C183.867 26.5604 181.879 26.9631 181.879 29.2131C181.879 31.1307 183.362 32.2301 185.229 32.2301ZM185.459 30.875C184.257 30.875 183.388 30.3381 183.388 29.2898C183.388 28.1392 184.436 27.7812 185.612 27.6278C186.252 27.5511 187.965 27.3722 188.22 27.0653V28.446C188.22 29.6733 187.249 30.875 185.459 30.875ZM196.752 22.1818H194.656V19.8295H193.147V22.1818H191.664V23.4602H193.147V29.5966C193.147 31.3097 194.528 32.1278 195.806 32.1278C196.369 32.1278 196.727 32.0256 196.931 31.9489L196.624 30.5938C196.496 30.6193 196.292 30.6705 195.96 30.6705C195.295 30.6705 194.656 30.4659 194.656 29.1875V23.4602H196.752V22.1818ZM203.032 32.2045C205.027 32.2045 206.484 31.2074 206.944 29.7244L205.487 29.3153C205.103 30.3381 204.215 30.8494 203.032 30.8494C201.262 30.8494 200.041 29.7053 199.971 27.6023H207.098V26.9631C207.098 23.3068 204.924 22.054 202.879 22.054C200.22 22.054 198.456 24.1506 198.456 27.1676C198.456 30.1847 200.194 32.2045 203.032 32.2045ZM199.971 26.2983C200.073 24.7706 201.153 23.4091 202.879 23.4091C204.515 23.4091 205.564 24.6364 205.564 26.2983H199.971Z" fill="white"/>
</svg>
